<svg id="Layer_1" version="1.1" viewBox="0 0 512 512" xml:space="preserve" xmlns="http://www.w3.org/2000/svg"><style></style><path d="M469.2 13H42.8C26.3 13 13 26.3 13 42.8v426.4c0 16.4 13.3 29.8 29.8 29.8h426.4c16.4 0 29.8-13.3 29.8-29.8V42.8c0-16.5-13.3-29.8-29.8-29.8z" fill="#3d5a98"/><path d="M357 164c.1 0 .1-.1.2-.1 7.2-5.6 15-6 17.5-6 16.1.4 32.2.7 48.3 1.1V86.8h-65c-11.8 0-23.5 2.1-34.3 6.6-10.5 4.3-22.3 11.6-32.4 23.7-20.2 24.4-19.5 51.9-19.1 58.3V238H209v74.8h63.3V499h75.4V312.8h62.2l11.5-74.8h-73.7v-54.1c-.1-7.7 3.3-15.1 9.3-19.9z" fill="#fff"/></svg>