<svg xmlns="http://www.w3.org/2000/svg" width="1155" height="1155"><path fill="#FFF" d="M0 0h1155v1155H0z"/><path d="M350 70h35v35h-35zM385 70h35v35h-35zM420 70h35v35h-35zM490 70h35v35h-35zM525 70h35v35h-35zM595 70h35v35h-35zM700 70h35v35h-35zM735 70h35v35h-35zM770 70h35v35h-35zM350 105h35v35h-35zM385 105h35v35h-35zM420 105h35v35h-35zM455 105h35v35h-35zM525 105h35v35h-35zM630 105h35v35h-35zM420 140h35v35h-35zM455 140h35v35h-35zM595 140h35v35h-35zM735 140h35v35h-35zM770 140h35v35h-35zM350 175h35v35h-35zM385 175h35v35h-35zM455 175h35v35h-35zM490 175h35v35h-35zM560 175h35v35h-35zM665 175h35v35h-35zM700 175h35v35h-35zM770 175h35v35h-35zM385 210h35v35h-35zM420 210h35v35h-35zM560 210h35v35h-35zM595 210h35v35h-35zM735 210h35v35h-35zM490 245h35v35h-35zM525 245h35v35h-35zM665 245h35v35h-35zM700 245h35v35h-35zM735 245h35v35h-35zM350 280h35v35h-35zM420 280h35v35h-35zM490 280h35v35h-35zM560 280h35v35h-35zM630 280h35v35h-35zM700 280h35v35h-35zM770 280h35v35h-35zM350 315h35v35h-35zM385 315h35v35h-35zM595 315h35v35h-35zM665 315h35v35h-35zM770 315h35v35h-35zM70 350h35v35H70zM140 350h35v35h-35zM175 350h35v35h-35zM245 350h35v35h-35zM280 350h35v35h-35zM315 350h35v35h-35zM385 350h35v35h-35zM420 350h35v35h-35zM455 350h35v35h-35zM525 350h35v35h-35zM665 350h35v35h-35zM700 350h35v35h-35zM840 350h35v35h-35zM945 350h35v35h-35zM1015 350h35v35h-35zM1050 350h35v35h-35zM105 385h35v35h-35zM140 385h35v35h-35zM175 385h35v35h-35zM210 385h35v35h-35zM315 385h35v35h-35zM350 385h35v35h-35zM385 385h35v35h-35zM490 385h35v35h-35zM525 385h35v35h-35zM560 385h35v35h-35zM630 385h35v35h-35zM665 385h35v35h-35zM700 385h35v35h-35zM735 385h35v35h-35zM770 385h35v35h-35zM840 385h35v35h-35zM875 385h35v35h-35zM910 385h35v35h-35zM1050 385h35v35h-35zM70 420h35v35H70zM140 420h35v35h-35zM175 420h35v35h-35zM280 420h35v35h-35zM385 420h35v35h-35zM420 420h35v35h-35zM525 420h35v35h-35zM665 420h35v35h-35zM770 420h35v35h-35zM805 420h35v35h-35zM875 420h35v35h-35zM910 420h35v35h-35zM980 420h35v35h-35zM1015 420h35v35h-35zM175 455h35v35h-35zM210 455h35v35h-35zM350 455h35v35h-35zM420 455h35v35h-35zM455 455h35v35h-35zM490 455h35v35h-35zM700 455h35v35h-35zM735 455h35v35h-35zM770 455h35v35h-35zM840 455h35v35h-35zM875 455h35v35h-35zM910 455h35v35h-35zM1050 455h35v35h-35zM105 490h35v35h-35zM210 490h35v35h-35zM245 490h35v35h-35zM280 490h35v35h-35zM315 490h35v35h-35zM350 490h35v35h-35zM455 490h35v35h-35zM560 490h35v35h-35zM595 490h35v35h-35zM630 490h35v35h-35zM665 490h35v35h-35zM770 490h35v35h-35zM945 490h35v35h-35zM980 490h35v35h-35zM105 525h35v35h-35zM245 525h35v35h-35zM315 525h35v35h-35zM385 525h35v35h-35zM490 525h35v35h-35zM560 525h35v35h-35zM595 525h35v35h-35zM630 525h35v35h-35zM735 525h35v35h-35zM805 525h35v35h-35zM840 525h35v35h-35zM980 525h35v35h-35zM1015 525h35v35h-35zM1050 525h35v35h-35zM70 560h35v35H70zM105 560h35v35h-35zM175 560h35v35h-35zM280 560h35v35h-35zM350 560h35v35h-35zM420 560h35v35h-35zM490 560h35v35h-35zM525 560h35v35h-35zM630 560h35v35h-35zM665 560h35v35h-35zM700 560h35v35h-35zM735 560h35v35h-35zM770 560h35v35h-35zM840 560h35v35h-35zM875 560h35v35h-35zM980 560h35v35h-35zM1015 560h35v35h-35zM1050 560h35v35h-35zM175 595h35v35h-35zM245 595h35v35h-35zM385 595h35v35h-35zM420 595h35v35h-35zM455 595h35v35h-35zM490 595h35v35h-35zM560 595h35v35h-35zM630 595h35v35h-35zM840 595h35v35h-35zM875 595h35v35h-35zM910 595h35v35h-35zM1015 595h35v35h-35zM175 630h35v35h-35zM245 630h35v35h-35zM280 630h35v35h-35zM455 630h35v35h-35zM490 630h35v35h-35zM560 630h35v35h-35zM595 630h35v35h-35zM735 630h35v35h-35zM770 630h35v35h-35zM805 630h35v35h-35zM875 630h35v35h-35zM910 630h35v35h-35zM945 630h35v35h-35zM1015 630h35v35h-35zM210 665h35v35h-35zM245 665h35v35h-35zM350 665h35v35h-35zM420 665h35v35h-35zM560 665h35v35h-35zM595 665h35v35h-35zM665 665h35v35h-35zM770 665h35v35h-35zM875 665h35v35h-35zM945 665h35v35h-35zM980 665h35v35h-35zM1015 665h35v35h-35zM70 700h35v35H70zM210 700h35v35h-35zM280 700h35v35h-35zM315 700h35v35h-35zM385 700h35v35h-35zM455 700h35v35h-35zM490 700h35v35h-35zM525 700h35v35h-35zM560 700h35v35h-35zM595 700h35v35h-35zM630 700h35v35h-35zM665 700h35v35h-35zM770 700h35v35h-35zM980 700h35v35h-35zM245 735h35v35h-35zM315 735h35v35h-35zM420 735h35v35h-35zM490 735h35v35h-35zM525 735h35v35h-35zM560 735h35v35h-35zM630 735h35v35h-35zM665 735h35v35h-35zM700 735h35v35h-35zM735 735h35v35h-35zM805 735h35v35h-35zM840 735h35v35h-35zM980 735h35v35h-35zM105 770h35v35h-35zM280 770h35v35h-35zM350 770h35v35h-35zM420 770h35v35h-35zM525 770h35v35h-35zM560 770h35v35h-35zM630 770h35v35h-35zM665 770h35v35h-35zM700 770h35v35h-35zM735 770h35v35h-35zM770 770h35v35h-35zM805 770h35v35h-35zM840 770h35v35h-35zM875 770h35v35h-35zM910 770h35v35h-35zM945 770h35v35h-35zM980 770h35v35h-35zM350 805h35v35h-35zM630 805h35v35h-35zM665 805h35v35h-35zM700 805h35v35h-35zM770 805h35v35h-35zM910 805h35v35h-35zM945 805h35v35h-35zM980 805h35v35h-35zM1015 805h35v35h-35zM1050 805h35v35h-35zM350 840h35v35h-35zM455 840h35v35h-35zM490 840h35v35h-35zM560 840h35v35h-35zM665 840h35v35h-35zM700 840h35v35h-35zM735 840h35v35h-35zM770 840h35v35h-35zM840 840h35v35h-35zM910 840h35v35h-35zM945 840h35v35h-35zM1015 840h35v35h-35zM350 875h35v35h-35zM420 875h35v35h-35zM490 875h35v35h-35zM525 875h35v35h-35zM560 875h35v35h-35zM595 875h35v35h-35zM700 875h35v35h-35zM770 875h35v35h-35zM910 875h35v35h-35zM945 875h35v35h-35zM1050 875h35v35h-35zM385 910h35v35h-35zM420 910h35v35h-35zM490 910h35v35h-35zM595 910h35v35h-35zM630 910h35v35h-35zM665 910h35v35h-35zM770 910h35v35h-35zM805 910h35v35h-35zM840 910h35v35h-35zM875 910h35v35h-35zM910 910h35v35h-35zM980 910h35v35h-35zM350 945h35v35h-35zM420 945h35v35h-35zM455 945h35v35h-35zM595 945h35v35h-35zM630 945h35v35h-35zM700 945h35v35h-35zM805 945h35v35h-35zM910 945h35v35h-35zM945 945h35v35h-35zM1050 945h35v35h-35zM350 980h35v35h-35zM455 980h35v35h-35zM490 980h35v35h-35zM525 980h35v35h-35zM770 980h35v35h-35zM875 980h35v35h-35zM980 980h35v35h-35zM1050 980h35v35h-35zM385 1015h35v35h-35zM420 1015h35v35h-35zM560 1015h35v35h-35zM595 1015h35v35h-35zM630 1015h35v35h-35zM770 1015h35v35h-35zM875 1015h35v35h-35zM910 1015h35v35h-35zM945 1015h35v35h-35zM1015 1015h35v35h-35zM350 1050h35v35h-35zM385 1050h35v35h-35zM420 1050h35v35h-35zM455 1050h35v35h-35zM490 1050h35v35h-35zM700 1050h35v35h-35zM770 1050h35v35h-35zM805 1050h35v35h-35zM840 1050h35v35h-35zM1015 1050h35v35h-35z"/><path fill="none" d="M106.75 106.75h171.5v171.5h-171.5z"/><path d="M278.25 70H70v245h245V70h-36.75zm0 208.25h-171.5v-171.5h171.5v171.5z"/><path fill="none" d="M876.75 106.75h171.5v171.5h-171.5z"/><path d="M1048.25 70H840v245h245V70h-36.75zm0 208.25h-171.5v-171.5h171.5v171.5z"/><path fill="none" d="M106.75 876.75h171.5v171.5h-171.5z"/><path d="M278.25 840H70v245h245V840h-36.75zm0 208.25h-171.5v-171.5h171.5v171.5z"/><g><path d="M140 140h105v105H140z"/></g><g><path d="M910 140h105v105H910z"/></g><g><path d="M140 910h105v105H140z"/></g></svg>