<svg id="Layer_1" version="1.1" viewBox="0 0 512 512" xml:space="preserve" xmlns="http://www.w3.org/2000/svg"><style></style><path d="M471.5 113.8c-10.8 2.9-20.7 4.6-29.2 5.6 7-3.9 18.9-11.6 29.1-25.4 8.4-11.3 12.4-22.3 14.4-29.5-8.5 4.9-18.6 10-30.4 14.5-12.1 4.7-23.3 7.8-33 9.9-5.9-6.3-17.3-17-35-24.2-16.5-6.7-31.1-7.3-39.5-7-5.6.1-47.8 1.3-76.5 37.3-29.6 37.2-20 80.3-18.7 85.4-23.9-.9-67.7-5.6-115.6-30.3-47.2-24.4-76.9-55.8-91.4-74.6-4 6.4-19.4 33-12.6 69.1 7.6 40.2 37.6 60.7 43 64.2-5.9-.2-13.3-1-21.7-3.1-9.7-2.5-17.5-6.2-23.1-9.4-.1 9.6 1 33.1 16.3 56.5 21.6 32.9 55.4 41.5 63.1 43.2-5.7 1.5-13.1 2.9-21.7 3.2-8.9.3-16.6-.6-22.5-1.7 2.5 8.3 10.3 30.7 32.7 48.5 24.8 19.6 51.4 20.9 59.7 21-12.7 10.1-33.3 24.1-61.8 33.3-35.8 11.7-66.6 10.4-84.1 8.4 21 13.7 75.8 45.4 152.7 45.6 77.7.2 133.1-32 153.9-45.6 21.7-14.2 65.7-47.1 97-106.5 33-62.5 34-120.5 32.9-146.4 8.8-6.6 18.9-15.1 29.1-26 8.4-9 15.1-17.8 20.5-25.7-7.9 3.4-17.1 6.8-27.6 9.7z" fill="#55adee"/></svg>